<?xml version="1.0" encoding="UTF-8" standalone="no"?>
<svg
   version="1.1"
   x="0px"
   y="0px"
   viewBox="0 0 360 360"
   enable-background="new 0 0 100 100"
   xml:space="preserve"
   id="svg2"
   sodipodi:docname="waterfall_white.svg"
   width="360"
   height="360"
   inkscape:version="1.3.2 (091e20ef0f, 2023-11-25)"
   xmlns:inkscape="http://www.inkscape.org/namespaces/inkscape"
   xmlns:sodipodi="http://sodipodi.sourceforge.net/DTD/sodipodi-0.dtd"
   xmlns="http://www.w3.org/2000/svg"
   xmlns:svg="http://www.w3.org/2000/svg"><defs
     id="defs2" /><sodipodi:namedview
     id="namedview2"
     pagecolor="#ffffff"
     bordercolor="#000000"
     borderopacity="0.25"
     inkscape:showpageshadow="2"
     inkscape:pageopacity="0.0"
     inkscape:pagecheckerboard="0"
     inkscape:deskcolor="#d1d1d1"
     inkscape:zoom="0.7975523"
     inkscape:cx="457.02332"
     inkscape:cy="161.74488"
     inkscape:window-width="2560"
     inkscape:window-height="1525"
     inkscape:window-x="0"
     inkscape:window-y="0"
     inkscape:window-maximized="1"
     inkscape:current-layer="svg2" /><path
     id="path9-6-7"
     style="fill:#ffffff;stroke-width:0;stroke-linecap:round;stroke-linejoin:round;stroke-opacity:0"
     d="m 165,54.01924 v 100 L 235.63586,83.383391 A 99.999999,99.999999 0 0 0 165,54.01924 Z" /><path
     id="path9-6-7-6-9-6"
     style="fill:#ffffff;stroke-width:0;stroke-linecap:round;stroke-linejoin:round;stroke-opacity:0"
     d="M 281.60256,104.01923 195,154.01924 l 96.49038,25.8545 a 100,100 0 0 0 -9.88782,-75.85451 z" /><path
     id="path9-6-7-6-9-3"
     style="fill:#ffffff;stroke-width:0;stroke-linecap:round;stroke-linejoin:round;stroke-opacity:0"
     d="M 296.60255,230.00001 210,180 l 25.85453,96.49037 a 100,100 0 0 0 60.74802,-46.49036 z" /><path
     id="path9-6-7-6-9-9"
     style="fill:#ffffff;stroke-width:0;stroke-linecap:round;stroke-linejoin:round;stroke-opacity:0"
     d="M 195,305.98077 V 205.98076 l -70.63585,70.63586 A 100,100 0 0 0 195,305.98077 Z" /><path
     id="path9-6-7-6-9-0"
     style="fill:#ffffff;stroke-width:0;stroke-linecap:round;stroke-linejoin:round;stroke-opacity:0"
     d="M 78.397452,255.98077 165,205.98076 68.509632,180.12625 a 100,100 0 0 0 9.88782,75.85452 z" /><path
     id="path9-6-7-6-9-1"
     style="fill:#ffffff;stroke-width:0;stroke-linecap:round;stroke-linejoin:round;stroke-opacity:0"
     d="M 63.397463,130 150,180 124.14549,83.50962 A 100,100 0 0 0 63.397463,130 Z" /><path
     id="path3"
     style="fill:#ffffff;stroke-width:0;stroke-linecap:round;stroke-linejoin:round;stroke-opacity:0"
     d="m 180,140 a 40,40 0 0 0 -40,40 40,40 0 0 0 40,40 40,40 0 0 0 40,-40 40,40 0 0 0 -40,-40 z m 0,20 a 20,20 0 0 1 20,20 20,20 0 0 1 -20,20 20,20 0 0 1 -20,-20 20,20 0 0 1 20,-20 z" /><path
     id="path4"
     style="fill:#ffffff;stroke-width:0;stroke-linecap:round;stroke-linejoin:round;stroke-opacity:0"
     d="M 180,0 A 180,180 0 0 0 -2e-6,180 180,180 0 0 0 180,360 180,180 0 0 0 360,180 180,180 0 0 0 180,0 Z m 0,30 A 150,150 0 0 1 330,180 150,150 0 0 1 180,330 150,150 0 0 1 29.999998,180 150,150 0 0 1 180,30 Z" /><circle
     id="path6"
     style="fill:#ffffff;stroke:none"
     cx="177.5"
     cy="52.636234"
     r="0" /><circle
     id="path8"
     style="fill:#ffffff;stroke:none"
     cx="182.5"
     cy="52.636234"
     r="0" /></svg>
